<!-- Generated by IcoMoon.io -->
<svg version="1.1" xmlns="http://www.w3.org/2000/svg" width="1015" height="1024" viewBox="0 0 1015 1024">
<title></title>
<g id="icomoon-ignore">
    <line stroke-width="1" x1="16" y1="0" x2="16" y2="1024" stroke="#449FDB" opacity="0.3"></line>
    <line stroke-width="1" x1="32" y1="0" x2="32" y2="1024" stroke="#449FDB" opacity="1"></line>
    <line stroke-width="1" x1="48" y1="0" x2="48" y2="1024" stroke="#449FDB" opacity="0.3"></line>
    <line stroke-width="1" x1="64" y1="0" x2="64" y2="1024" stroke="#449FDB" opacity="1"></line>
    <line stroke-width="1" x1="80" y1="0" x2="80" y2="1024" stroke="#449FDB" opacity="0.3"></line>
    <line stroke-width="1" x1="96" y1="0" x2="96" y2="1024" stroke="#449FDB" opacity="1"></line>
    <line stroke-width="1" x1="112" y1="0" x2="112" y2="1024" stroke="#449FDB" opacity="0.3"></line>
    <line stroke-width="1" x1="128" y1="0" x2="128" y2="1024" stroke="#449FDB" opacity="1"></line>
    <line stroke-width="1" x1="144" y1="0" x2="144" y2="1024" stroke="#449FDB" opacity="0.3"></line>
    <line stroke-width="1" x1="160" y1="0" x2="160" y2="1024" stroke="#449FDB" opacity="1"></line>
    <line stroke-width="1" x1="176" y1="0" x2="176" y2="1024" stroke="#449FDB" opacity="0.3"></line>
    <line stroke-width="1" x1="192" y1="0" x2="192" y2="1024" stroke="#449FDB" opacity="1"></line>
    <line stroke-width="1" x1="208" y1="0" x2="208" y2="1024" stroke="#449FDB" opacity="0.3"></line>
    <line stroke-width="1" x1="224" y1="0" x2="224" y2="1024" stroke="#449FDB" opacity="1"></line>
    <line stroke-width="1" x1="240" y1="0" x2="240" y2="1024" stroke="#449FDB" opacity="0.3"></line>
    <line stroke-width="1" x1="256" y1="0" x2="256" y2="1024" stroke="#449FDB" opacity="1"></line>
    <line stroke-width="1" x1="272" y1="0" x2="272" y2="1024" stroke="#449FDB" opacity="0.3"></line>
    <line stroke-width="1" x1="288" y1="0" x2="288" y2="1024" stroke="#449FDB" opacity="1"></line>
    <line stroke-width="1" x1="304" y1="0" x2="304" y2="1024" stroke="#449FDB" opacity="0.3"></line>
    <line stroke-width="1" x1="320" y1="0" x2="320" y2="1024" stroke="#449FDB" opacity="1"></line>
    <line stroke-width="1" x1="336" y1="0" x2="336" y2="1024" stroke="#449FDB" opacity="0.3"></line>
    <line stroke-width="1" x1="352" y1="0" x2="352" y2="1024" stroke="#449FDB" opacity="1"></line>
    <line stroke-width="1" x1="368" y1="0" x2="368" y2="1024" stroke="#449FDB" opacity="0.3"></line>
    <line stroke-width="1" x1="384" y1="0" x2="384" y2="1024" stroke="#449FDB" opacity="1"></line>
    <line stroke-width="1" x1="400" y1="0" x2="400" y2="1024" stroke="#449FDB" opacity="0.3"></line>
    <line stroke-width="1" x1="416" y1="0" x2="416" y2="1024" stroke="#449FDB" opacity="1"></line>
    <line stroke-width="1" x1="432" y1="0" x2="432" y2="1024" stroke="#449FDB" opacity="0.3"></line>
    <line stroke-width="1" x1="448" y1="0" x2="448" y2="1024" stroke="#449FDB" opacity="1"></line>
    <line stroke-width="1" x1="464" y1="0" x2="464" y2="1024" stroke="#449FDB" opacity="0.3"></line>
    <line stroke-width="1" x1="480" y1="0" x2="480" y2="1024" stroke="#449FDB" opacity="1"></line>
    <line stroke-width="1" x1="496" y1="0" x2="496" y2="1024" stroke="#449FDB" opacity="0.3"></line>
    <line stroke-width="1" x1="512" y1="0" x2="512" y2="1024" stroke="#449FDB" opacity="1"></line>
    <line stroke-width="1" x1="528" y1="0" x2="528" y2="1024" stroke="#449FDB" opacity="0.3"></line>
    <line stroke-width="1" x1="544" y1="0" x2="544" y2="1024" stroke="#449FDB" opacity="1"></line>
    <line stroke-width="1" x1="560" y1="0" x2="560" y2="1024" stroke="#449FDB" opacity="0.3"></line>
    <line stroke-width="1" x1="576" y1="0" x2="576" y2="1024" stroke="#449FDB" opacity="1"></line>
    <line stroke-width="1" x1="592" y1="0" x2="592" y2="1024" stroke="#449FDB" opacity="0.3"></line>
    <line stroke-width="1" x1="608" y1="0" x2="608" y2="1024" stroke="#449FDB" opacity="1"></line>
    <line stroke-width="1" x1="624" y1="0" x2="624" y2="1024" stroke="#449FDB" opacity="0.3"></line>
    <line stroke-width="1" x1="640" y1="0" x2="640" y2="1024" stroke="#449FDB" opacity="1"></line>
    <line stroke-width="1" x1="656" y1="0" x2="656" y2="1024" stroke="#449FDB" opacity="0.3"></line>
    <line stroke-width="1" x1="672" y1="0" x2="672" y2="1024" stroke="#449FDB" opacity="1"></line>
    <line stroke-width="1" x1="688" y1="0" x2="688" y2="1024" stroke="#449FDB" opacity="0.3"></line>
    <line stroke-width="1" x1="704" y1="0" x2="704" y2="1024" stroke="#449FDB" opacity="1"></line>
    <line stroke-width="1" x1="720" y1="0" x2="720" y2="1024" stroke="#449FDB" opacity="0.3"></line>
    <line stroke-width="1" x1="736" y1="0" x2="736" y2="1024" stroke="#449FDB" opacity="1"></line>
    <line stroke-width="1" x1="752" y1="0" x2="752" y2="1024" stroke="#449FDB" opacity="0.3"></line>
    <line stroke-width="1" x1="768" y1="0" x2="768" y2="1024" stroke="#449FDB" opacity="1"></line>
    <line stroke-width="1" x1="784" y1="0" x2="784" y2="1024" stroke="#449FDB" opacity="0.3"></line>
    <line stroke-width="1" x1="800" y1="0" x2="800" y2="1024" stroke="#449FDB" opacity="1"></line>
    <line stroke-width="1" x1="816" y1="0" x2="816" y2="1024" stroke="#449FDB" opacity="0.3"></line>
    <line stroke-width="1" x1="832" y1="0" x2="832" y2="1024" stroke="#449FDB" opacity="1"></line>
    <line stroke-width="1" x1="848" y1="0" x2="848" y2="1024" stroke="#449FDB" opacity="0.3"></line>
    <line stroke-width="1" x1="864" y1="0" x2="864" y2="1024" stroke="#449FDB" opacity="1"></line>
    <line stroke-width="1" x1="880" y1="0" x2="880" y2="1024" stroke="#449FDB" opacity="0.3"></line>
    <line stroke-width="1" x1="896" y1="0" x2="896" y2="1024" stroke="#449FDB" opacity="1"></line>
    <line stroke-width="1" x1="912" y1="0" x2="912" y2="1024" stroke="#449FDB" opacity="0.3"></line>
    <line stroke-width="1" x1="928" y1="0" x2="928" y2="1024" stroke="#449FDB" opacity="1"></line>
    <line stroke-width="1" x1="944" y1="0" x2="944" y2="1024" stroke="#449FDB" opacity="0.3"></line>
    <line stroke-width="1" x1="960" y1="0" x2="960" y2="1024" stroke="#449FDB" opacity="1"></line>
    <line stroke-width="1" x1="976" y1="0" x2="976" y2="1024" stroke="#449FDB" opacity="0.3"></line>
    <line stroke-width="1" x1="992" y1="0" x2="992" y2="1024" stroke="#449FDB" opacity="1"></line>
    <line stroke-width="1" x1="1008" y1="0" x2="1008" y2="1024" stroke="#449FDB" opacity="0.3"></line>
    <line stroke-width="1" x1="0" y1="16" x2="1015" y2="16" stroke="#449FDB" opacity="0.3"></line>
    <line stroke-width="1" x1="0" y1="32" x2="1015" y2="32" stroke="#449FDB" opacity="1"></line>
    <line stroke-width="1" x1="0" y1="48" x2="1015" y2="48" stroke="#449FDB" opacity="0.3"></line>
    <line stroke-width="1" x1="0" y1="64" x2="1015" y2="64" stroke="#449FDB" opacity="1"></line>
    <line stroke-width="1" x1="0" y1="80" x2="1015" y2="80" stroke="#449FDB" opacity="0.3"></line>
    <line stroke-width="1" x1="0" y1="96" x2="1015" y2="96" stroke="#449FDB" opacity="1"></line>
    <line stroke-width="1" x1="0" y1="112" x2="1015" y2="112" stroke="#449FDB" opacity="0.3"></line>
    <line stroke-width="1" x1="0" y1="128" x2="1015" y2="128" stroke="#449FDB" opacity="1"></line>
    <line stroke-width="1" x1="0" y1="144" x2="1015" y2="144" stroke="#449FDB" opacity="0.3"></line>
    <line stroke-width="1" x1="0" y1="160" x2="1015" y2="160" stroke="#449FDB" opacity="1"></line>
    <line stroke-width="1" x1="0" y1="176" x2="1015" y2="176" stroke="#449FDB" opacity="0.3"></line>
    <line stroke-width="1" x1="0" y1="192" x2="1015" y2="192" stroke="#449FDB" opacity="1"></line>
    <line stroke-width="1" x1="0" y1="208" x2="1015" y2="208" stroke="#449FDB" opacity="0.3"></line>
    <line stroke-width="1" x1="0" y1="224" x2="1015" y2="224" stroke="#449FDB" opacity="1"></line>
    <line stroke-width="1" x1="0" y1="240" x2="1015" y2="240" stroke="#449FDB" opacity="0.3"></line>
    <line stroke-width="1" x1="0" y1="256" x2="1015" y2="256" stroke="#449FDB" opacity="1"></line>
    <line stroke-width="1" x1="0" y1="272" x2="1015" y2="272" stroke="#449FDB" opacity="0.3"></line>
    <line stroke-width="1" x1="0" y1="288" x2="1015" y2="288" stroke="#449FDB" opacity="1"></line>
    <line stroke-width="1" x1="0" y1="304" x2="1015" y2="304" stroke="#449FDB" opacity="0.3"></line>
    <line stroke-width="1" x1="0" y1="320" x2="1015" y2="320" stroke="#449FDB" opacity="1"></line>
    <line stroke-width="1" x1="0" y1="336" x2="1015" y2="336" stroke="#449FDB" opacity="0.3"></line>
    <line stroke-width="1" x1="0" y1="352" x2="1015" y2="352" stroke="#449FDB" opacity="1"></line>
    <line stroke-width="1" x1="0" y1="368" x2="1015" y2="368" stroke="#449FDB" opacity="0.3"></line>
    <line stroke-width="1" x1="0" y1="384" x2="1015" y2="384" stroke="#449FDB" opacity="1"></line>
    <line stroke-width="1" x1="0" y1="400" x2="1015" y2="400" stroke="#449FDB" opacity="0.3"></line>
    <line stroke-width="1" x1="0" y1="416" x2="1015" y2="416" stroke="#449FDB" opacity="1"></line>
    <line stroke-width="1" x1="0" y1="432" x2="1015" y2="432" stroke="#449FDB" opacity="0.3"></line>
    <line stroke-width="1" x1="0" y1="448" x2="1015" y2="448" stroke="#449FDB" opacity="1"></line>
    <line stroke-width="1" x1="0" y1="464" x2="1015" y2="464" stroke="#449FDB" opacity="0.3"></line>
    <line stroke-width="1" x1="0" y1="480" x2="1015" y2="480" stroke="#449FDB" opacity="1"></line>
    <line stroke-width="1" x1="0" y1="496" x2="1015" y2="496" stroke="#449FDB" opacity="0.3"></line>
    <line stroke-width="1" x1="0" y1="512" x2="1015" y2="512" stroke="#449FDB" opacity="1"></line>
    <line stroke-width="1" x1="0" y1="528" x2="1015" y2="528" stroke="#449FDB" opacity="0.3"></line>
    <line stroke-width="1" x1="0" y1="544" x2="1015" y2="544" stroke="#449FDB" opacity="1"></line>
    <line stroke-width="1" x1="0" y1="560" x2="1015" y2="560" stroke="#449FDB" opacity="0.3"></line>
    <line stroke-width="1" x1="0" y1="576" x2="1015" y2="576" stroke="#449FDB" opacity="1"></line>
    <line stroke-width="1" x1="0" y1="592" x2="1015" y2="592" stroke="#449FDB" opacity="0.3"></line>
    <line stroke-width="1" x1="0" y1="608" x2="1015" y2="608" stroke="#449FDB" opacity="1"></line>
    <line stroke-width="1" x1="0" y1="624" x2="1015" y2="624" stroke="#449FDB" opacity="0.3"></line>
    <line stroke-width="1" x1="0" y1="640" x2="1015" y2="640" stroke="#449FDB" opacity="1"></line>
    <line stroke-width="1" x1="0" y1="656" x2="1015" y2="656" stroke="#449FDB" opacity="0.3"></line>
    <line stroke-width="1" x1="0" y1="672" x2="1015" y2="672" stroke="#449FDB" opacity="1"></line>
    <line stroke-width="1" x1="0" y1="688" x2="1015" y2="688" stroke="#449FDB" opacity="0.3"></line>
    <line stroke-width="1" x1="0" y1="704" x2="1015" y2="704" stroke="#449FDB" opacity="1"></line>
    <line stroke-width="1" x1="0" y1="720" x2="1015" y2="720" stroke="#449FDB" opacity="0.3"></line>
    <line stroke-width="1" x1="0" y1="736" x2="1015" y2="736" stroke="#449FDB" opacity="1"></line>
    <line stroke-width="1" x1="0" y1="752" x2="1015" y2="752" stroke="#449FDB" opacity="0.3"></line>
    <line stroke-width="1" x1="0" y1="768" x2="1015" y2="768" stroke="#449FDB" opacity="1"></line>
    <line stroke-width="1" x1="0" y1="784" x2="1015" y2="784" stroke="#449FDB" opacity="0.3"></line>
    <line stroke-width="1" x1="0" y1="800" x2="1015" y2="800" stroke="#449FDB" opacity="1"></line>
    <line stroke-width="1" x1="0" y1="816" x2="1015" y2="816" stroke="#449FDB" opacity="0.3"></line>
    <line stroke-width="1" x1="0" y1="832" x2="1015" y2="832" stroke="#449FDB" opacity="1"></line>
    <line stroke-width="1" x1="0" y1="848" x2="1015" y2="848" stroke="#449FDB" opacity="0.3"></line>
    <line stroke-width="1" x1="0" y1="864" x2="1015" y2="864" stroke="#449FDB" opacity="1"></line>
    <line stroke-width="1" x1="0" y1="880" x2="1015" y2="880" stroke="#449FDB" opacity="0.3"></line>
    <line stroke-width="1" x1="0" y1="896" x2="1015" y2="896" stroke="#449FDB" opacity="1"></line>
    <line stroke-width="1" x1="0" y1="912" x2="1015" y2="912" stroke="#449FDB" opacity="0.3"></line>
    <line stroke-width="1" x1="0" y1="928" x2="1015" y2="928" stroke="#449FDB" opacity="1"></line>
    <line stroke-width="1" x1="0" y1="944" x2="1015" y2="944" stroke="#449FDB" opacity="0.3"></line>
    <line stroke-width="1" x1="0" y1="960" x2="1015" y2="960" stroke="#449FDB" opacity="1"></line>
    <line stroke-width="1" x1="0" y1="976" x2="1015" y2="976" stroke="#449FDB" opacity="0.3"></line>
    <line stroke-width="1" x1="0" y1="992" x2="1015" y2="992" stroke="#449FDB" opacity="1"></line>
    <line stroke-width="1" x1="0" y1="1008" x2="1015" y2="1008" stroke="#449FDB" opacity="0.3"></line>
</g>
<path fill="#000" d="M507.142 73.296c3.826-2.118 7.93-3.076 12.337-2.838 93.201-1.024 187.464 27.959 260.946 86.026 40.876 32.195 76.524 71.639 101.509 117.469 39.167 70.509 54.786 152.194 54.275 232.274-0.444 18.694-25.907 27.581-38.93 15.175-9.81-7.622-7.588-20.952-8.237-31.821-2.118-80.965-22.695-163.982-72.253-229.366-54.17-72.148-136.642-122.32-225.711-136.878-25.837-5.057-52.223-5.025-78.334-7.179-19.279-4.24-22.832-33.631-5.606-42.857zM202.991 84.643c18.285-5.843 38.793-3.212 55.401 6.256 14.902 8.374 26.624 21.088 37.766 33.803 20.166 23.311 39.747 47.132 57.759 72.182 20.166 27.547 40.023 56.155 51.199 88.691 5.914 16.576 6.221 36.163-4.547 50.857-16.44 21.259-39.51 35.784-59.913 52.839-24.642 20.403-19.001 56.257-9.059 82.811 15.552 47.643 45.767 89.068 80.657 124.441 38.315 38.179 81.888 72.389 132.131 93.372 13.057 5.263 26.352 10.32 40.331 12.645 15.996 2.426 33.767-2.052 44.738-14.491 13.672-16.031 25.803-33.288 39.782-49.078 22.387-22.455 59.846-24.678 87.186-10.355 48.841 26.727 94.637 58.682 137.224 94.501 16.097 14.459 36.776 25.635 46.004 46.209 9.911 21.088 5.025 45.967-6.287 65.483-14.731 25.358-33.016 48.67-53.999 69.143-31.785 34.826-81.923 61.485-129.362 44.227-102.361-40.089-200.214-92.586-287.947-159.026-92.177-69.791-173.076-154.106-240.749-247.756-60.597-84.043-110.084-176.425-143.307-274.688-6.735-21.19-11.691-44.364-5.092-66.235 6.564-21.804 23.035-38.516 39.303-53.591 21.325-19.001 45.045-35.099 68.699-51.028 6.836-4.648 14.116-8.817 22.079-11.212zM544.499 176.001c9.468-4.103 20.096-1.094 29.975-0.479 61.929 6.665 123.62 29.392 169.794 72.115 61.179 55.063 92.278 139.546 86.163 221.028-3.281 16.984-26.624 23.105-38.689 11.414-10.491-8.751-6.665-23.479-7.688-35.34-1.195-56.631-22.695-113.23-63.058-153.526-39.817-42.177-97.133-63.401-153.935-69.007-9.195-1.3-19.516-0.379-27.274-6.459-13.158-9.877-10.597-33.324 4.719-39.747zM575.906 282.806c17.6-3.655 35.819 0.993 53.045 4.956 36.535 9.227 68.901 34.897 83.94 69.722 10.254 23.105 15.654 48.6 15.073 73.892-0.716 17.328-23.548 26.419-36.843 16.133-10.118-6.493-9.81-19.516-10.834-30.042-2.359-27.511-13.158-56.631-37.186-72.319-18.971-13.431-42.756-15.346-65.075-18.114-20.645-4.749-21.874-37.186-2.118-44.227z"></path>
</svg>
