<?xml version="1.0" encoding="iso-8859-1"?>
<!-- Generator: Adobe Illustrator 19.0.0, SVG Export Plug-In . SVG Version: 6.00 Build 0)  -->
<svg version="1.1" id="Capa_1" xmlns="http://www.w3.org/2000/svg" xmlns:xlink="http://www.w3.org/1999/xlink" x="0px" y="0px"
	 viewBox="0 0 512 512" style="enable-background:new 0 0 512 512;" xml:space="preserve">
<path style="fill:#F05540;" d="M364.8,309.333C419.2,233.6,512,230.4,512,134.4c0-41.6-34.133-75.733-75.733-75.733
	c-33.067,0-60.8,21.333-71.467,50.133c-10.667-29.867-38.4-50.133-71.467-50.133c-41.6,0-75.733,34.133-75.733,75.733
	C217.6,232.533,310.4,234.667,364.8,309.333z"/>
<path style="fill:#F3705A;" d="M168.533,453.333c62.933-86.4,168.533-90.667,168.533-200.533c0-48-38.4-86.4-86.4-86.4
	c-37.333,0-69.333,24.533-82.133,57.6C156.8,190.933,124.8,166.4,86.4,166.4c-48,0-86.4,38.4-86.4,86.4
	C0,365.867,106.667,368,168.533,453.333z"/>
<path style="fill:#FFFFFF;" d="M289.067,209.067c11.733,10.667,17.067,23.467,11.733,29.867c-5.333,6.4-19.2,2.133-30.933-8.533
	s-17.067-23.467-11.733-29.867C263.467,195.2,277.333,198.4,289.067,209.067z"/>
<g>
</g>
<g>
</g>
<g>
</g>
<g>
</g>
<g>
</g>
<g>
</g>
<g>
</g>
<g>
</g>
<g>
</g>
<g>
</g>
<g>
</g>
<g>
</g>
<g>
</g>
<g>
</g>
<g>
</g>
</svg>
