<?xml version="1.0" encoding="UTF-8" standalone="no"?> <svg xmlns="http://www.w3.org/2000/svg" viewBox="0 0 64 64"><defs><style>.cls-1{fill:#cfd8dc;stroke-miterlimit:10;}.cls-1,.cls-2{stroke:#cfd8dc;}.cls-1,.cls-2,.cls-3,.cls-4,.cls-5{stroke-width:2px;}.cls-2{fill:#b5c1c6;}.cls-2,.cls-3,.cls-4,.cls-5{stroke-linecap:round;stroke-linejoin:round;}.cls-3{fill:none;stroke:#54596e;}.cls-4,.cls-7{fill:#f98af9;}.cls-4{stroke:#f98af9;}.cls-5{fill:#f2ec25;stroke:#ffb74d;}.cls-6{fill:#54596e;}</style></defs><title>unicorn</title><g id="unicorn"><path class="cls-1" d="M45.72,31.48,44,23.5h-.1A16.08,16.08,0,0,0,44.54,21c.61-4.17-.37-9.14-2.32-11.39-2.45,1.18-4.49,5.41-5.1,9.59A20.6,20.6,0,0,0,37.05,24H26.73a20.6,20.6,0,0,0-.06-4.83C26.05,15,24,10.76,21.56,9.58,19.62,11.83,18.63,16.8,19.25,21a16.05,16.05,0,0,0,.66,2.76l-1.63,7.75a33.55,33.55,0,0,0,.21,10l2.25,13H43.27l2.25-13A33.55,33.55,0,0,0,45.72,31.48Z"/><path class="cls-2" d="M45,53.22C45,48.8,39.18,47,32,47s-13,1.8-13,6.22S24.82,63,32,63,45,57.64,45,53.22Z"/><path class="cls-3" d="M27,57a4,4,0,0,0-4-4"/><polyline class="cls-4" points="36 19 32 1 28 19 28 19"/><path class="cls-3" d="M37,57a4,4,0,0,1,4-4"/><path class="cls-5" d="M32,16c3.87,0,7,2.24,7,5v9l-9-3"/><path class="cls-5" d="M32,21.67V16c-3.87,0-7,2.24-7,5V35l8-10"/><circle class="cls-6" cx="23.5" cy="38.5" r="1.5"/><circle class="cls-6" cx="40.5" cy="38.5" r="1.5"/><polygon class="cls-7" points="59.25 10.25 57.5 13.45 55.75 10.25 52.55 8.5 55.75 6.75 57.5 3.55 59.25 6.75 62.45 8.5 59.25 10.25"/><polygon class="cls-7" points="55.56 46.56 54.5 48.5 53.44 46.56 51.5 45.5 53.44 44.44 54.5 42.5 55.56 44.44 57.5 45.5 55.56 46.56"/><polygon class="cls-7" points="6.93 34.88 5.57 37.48 4.12 34.93 1.52 33.56 4.07 32.12 5.43 29.52 6.88 32.07 9.48 33.44 6.93 34.88"/></g></svg>